<?xml version="1.0" encoding="utf-8" ?>
<svg baseProfile="full" height="595.2755905511812" version="1.1" viewBox="0 0 841.8897637795277 595.2755905511812" width="841.8897637795277" xmlns="http://www.w3.org/2000/svg" xmlns:ev="http://www.w3.org/2001/xml-events" xmlns:xlink="http://www.w3.org/1999/xlink"><defs /><g transform="translate(-58.00647830317646,-72.5789640207029) scale(3.1336871367197374)"><polyline fill="none" points="152.83955905511812,88.39212598425198 152.83955905511812,111.04094488188977 90.14173228346458,111.04094488188977 90.14173228346458,133.68976377952757" stroke="#86B8AD" stroke-width="1.2" /><line stroke="#86B8AD" stroke-width="1.0" x1="90.14173228346458" x2="86.94173228346457" y1="133.68976377952757" y2="127.68976377952757" /><line stroke="#86B8AD" stroke-width="1.0" x1="90.14173228346458" x2="93.34173228346458" y1="133.68976377952757" y2="127.68976377952757" /><text fill="#146B8C" font-family="Arial" font-size="10.0" text-anchor="middle" x="121.49064566929135" y="108.04094488188977">contains</text><polyline fill="none" points="152.83955905511812,88.39212598425198 152.83955905511812,111.04094488188977 215.53738582677167,111.04094488188977 215.53738582677167,133.68976377952757" stroke="#4E7F86" stroke-width="1.75" /><line stroke="#86B8AD" stroke-width="1.0" x1="215.53738582677167" x2="212.33738582677168" y1="133.68976377952757" y2="127.68976377952757" /><line stroke="#86B8AD" stroke-width="1.0" x1="215.53738582677167" x2="218.73738582677166" y1="133.68976377952757" y2="127.68976377952757" /><rect fill="#D8F7BF" height="54.3763779527559" rx="4.0" ry="4.0" stroke="#4EA72E" stroke-width="2.6" width="96.94251968503937" x="104.36829921259843" y="34.01574803149607" /><text fill="#1F5E16" font-family="Georgia" font-size="18.0" x="114.28955905511812" y="59.952755905511815">Biology</text><text fill="#3D6D2E" font-family="Arial" font-size="11.4" x="114.28955905511812" y="77.65511811023623">Study of life.</text><rect fill="#DDEFEA" height="9" rx="3" ry="3" width="9.64" x="188.6708188976378" y="37.01574803149607" /><text fill="#5A8E95" font-family="Arial" font-size="6.5" text-anchor="middle" x="193.49081889763778" y="44.01574803149607">1</text><rect fill="#DDF6F0" height="68.5763779527559" rx="4.0" ry="4.0" stroke="#2F9B8F" stroke-width="1.2" width="112.25196850393702" x="34.01574803149607" y="133.68976377952757" /><text fill="#0F5A63" font-family="Georgia" font-size="18.0" x="43.93700787401575" y="159.6267716535433">Cell</text><text fill="#2C6670" font-family="Arial" font-size="11.4" x="43.93700787401575" y="177.3291338582677">Basic unit of</text><text fill="#2C6670" font-family="Arial" font-size="11.4" x="43.93700787401575" y="191.5291338582677">life.</text><rect fill="#DDEFEA" height="9" rx="3" ry="3" width="15.490000000000002" x="127.77771653543309" y="136.68976377952757" /><text fill="#5A8E95" font-family="Arial" font-size="6.5" text-anchor="middle" x="135.5227165354331" y="143.68976377952757">1.1</text><rect fill="#F2FBF8" height="68.5763779527559" rx="4.0" ry="4.0" stroke="#4C8C78" stroke-width="1.2" width="112.25196850393702" x="159.41140157480316" y="133.68976377952757" /><text fill="#184A44" font-family="Georgia" font-size="18.0" x="169.33266141732284" y="159.6267716535433">Genetics</text><text fill="#2D5F68" font-family="Arial" font-size="11.4" x="169.33266141732284" y="177.3291338582677">Study of</text><text fill="#2D5F68" font-family="Arial" font-size="11.4" x="169.33266141732284" y="191.5291338582677">heredity.</text><rect fill="#DDEFEA" height="9" rx="3" ry="3" width="15.490000000000002" x="253.17337007874016" y="136.68976377952757" /><text fill="#5A8E95" font-family="Arial" font-size="6.5" text-anchor="middle" x="260.91837007874017" y="143.68976377952757">1.2</text></g></svg>